<?xml version="1.0" encoding="UTF-8"?>
<svg width="36px" height="48px" viewBox="0 0 36 48" version="1.1" xmlns="http://www.w3.org/2000/svg" xmlns:xlink="http://www.w3.org/1999/xlink">
    <!-- Generator: Sketch 48.2 (47327) - http://www.bohemiancoding.com/sketch -->
    <title>蓝牙</title>
    <desc>Created with Sketch.</desc>
    <defs></defs>
    <g id="添加设备-copy" stroke="none" stroke-width="1" fill="none" fill-rule="evenodd" transform="translate(-124.000000, -100.000000)">
        <path d="M143.659529,128.202118 L147.625176,132.167765 L143.635529,136.157412 L143.659529,128.202118 Z M143.629882,111.836235 L147.618824,115.825882 L143.653176,119.791529 L143.629882,111.836235 Z M140.149882,144.622353 L152.574824,132.191765 L144.379529,123.996471 L152.574824,115.801882 L140.149882,103.371294 L140.149882,119.737176 L133.322588,112.909882 L130.833647,115.400235 L139.406588,123.996471 L130.833647,132.594118 L133.322588,135.083765 L140.149882,128.256471 L140.149882,144.622353 Z M158.550118,114.212235 C159.119765,117.008235 159.407765,120.265176 159.407765,124.002824 C159.407765,127.734824 159.119765,130.998118 158.550118,133.794118 C157.979765,136.589412 157.200471,138.881412 156.203765,140.675059 C155.214118,142.468706 153.954118,143.920706 152.442118,145.030353 C150.930824,146.14 149.305176,146.914353 147.583529,147.345647 C145.861176,147.784 143.899529,148 141.703529,148 C139.508235,148 137.546588,147.777647 135.824235,147.345647 C134.102588,146.908 132.476941,146.133647 130.965647,145.030353 C129.447294,143.920706 128.193647,142.475059 127.204,140.675059 C126.213647,138.881412 125.428,136.583059 124.857647,133.794118 C124.288,130.998118 124,127.740471 124,124.002824 C124,120.271529 124.288,117.008235 124.857647,114.212235 C125.428,111.416235 126.208,109.124941 127.204,107.331294 C128.199294,105.537647 129.453647,104.084941 130.965647,102.975294 C132.483294,101.872 134.102588,101.092 135.824235,100.66 C137.546588,100.221647 139.508235,100 141.703529,100 C143.899529,100 145.861176,100.221647 147.583529,100.653647 C149.305176,101.092 150.930824,101.865647 152.442118,102.969647 C153.960471,104.079294 155.214118,105.525647 156.203765,107.324941 C157.194118,109.124941 157.973412,111.416235 158.550118,114.212235 Z" id="蓝牙" fill="#FFFFFF"></path>
    </g>
</svg>