<?xml version="1.0" encoding="UTF-8"?>
<svg width="16px" height="20px" viewBox="0 0 16 20" version="1.1" xmlns="http://www.w3.org/2000/svg" xmlns:xlink="http://www.w3.org/1999/xlink">
    <!-- Generator: Sketch 48.2 (47327) - http://www.bohemiancoding.com/sketch -->
    <title>设备1</title>
    <desc>Created with Sketch.</desc>
    <defs></defs>
    <g id="设备" stroke="none" stroke-width="1" fill="none" fill-rule="evenodd" transform="translate(-19.000000, -117.000000)">
        <g id="Group-2" transform="translate(0.000000, 102.000000)" fill="#077DFF">
            <g id="设备1" transform="translate(19.000000, 15.000000)">
                <path d="M3.7833,4.3154 L6.9003,4.3154 C7.3143,4.3154 7.6503,3.9794 7.6503,3.5654 C7.6503,3.1504 7.3143,2.8154 6.9003,2.8154 L3.7833,2.8154 C3.3683,2.8154 3.0333,3.1504 3.0333,3.5654 C3.0333,3.9794 3.3683,4.3154 3.7833,4.3154" id="Fill-1"></path>
                <path d="M3.7833,6.7349 L6.9003,6.7349 C7.3143,6.7349 7.6503,6.3999 7.6503,5.9849 C7.6503,5.5699 7.3143,5.2349 6.9003,5.2349 L3.7833,5.2349 C3.3683,5.2349 3.0333,5.5699 3.0333,5.9849 C3.0333,6.3999 3.3683,6.7349 3.7833,6.7349" id="Fill-3"></path>
                <path d="M3.7833,9.1543 L6.9003,9.1543 C7.3143,9.1543 7.6503,8.8183 7.6503,8.4043 C7.6503,7.9903 7.3143,7.6543 6.9003,7.6543 L3.7833,7.6543 C3.3683,7.6543 3.0333,7.9903 3.0333,8.4043 C3.0333,8.8183 3.3683,9.1543 3.7833,9.1543" id="Fill-5"></path>
                <path d="M6.2286,13.7563 C6.2016,14.2053 5.8306,14.5633 5.3746,14.5633 C4.9016,14.5633 4.5166,14.1773 4.5166,13.7043 C4.5166,13.2303 4.9016,12.8453 5.3746,12.8453 C5.8306,12.8453 6.2016,13.2033 6.2286,13.6523 C6.2276,13.6703 6.2236,13.6863 6.2236,13.7043 C6.2236,13.7223 6.2276,13.7383 6.2286,13.7563 Z M9.2496,18.5003 L1.4996,18.5003 L1.4996,1.5003 L9.2496,1.5003 L9.2496,12.9543 L7.6006,12.9543 C7.2846,12.0223 6.4126,11.3453 5.3746,11.3453 C4.0746,11.3453 3.0166,12.4033 3.0166,13.7043 C3.0166,15.0053 4.0746,16.0633 5.3746,16.0633 C6.4126,16.0633 7.2846,15.3863 7.6006,14.4543 L9.2496,14.4543 L9.2496,18.5003 Z M14.5916,12.9543 L10.7496,12.9543 L10.7496,1.2503 C10.7496,0.5603 10.1886,0.0003 9.4996,0.0003 L1.2496,0.0003 C0.5606,0.0003 -0.0004,0.5603 -0.0004,1.2503 L-0.0004,18.7503 C-0.0004,19.4393 0.5606,20.0003 1.2496,20.0003 L9.4996,20.0003 C10.1886,20.0003 10.7496,19.4393 10.7496,18.7503 L10.7496,14.4543 L14.5916,14.4543 C15.0056,14.4543 15.3416,14.1183 15.3416,13.7043 C15.3416,13.2903 15.0056,12.9543 14.5916,12.9543 Z" id="Fill-7"></path>
            </g>
        </g>
    </g>
</svg>