<?xml version="1.0" encoding="UTF-8"?>
<svg width="36px" height="36px" viewBox="0 0 36 36" version="1.1" xmlns="http://www.w3.org/2000/svg" xmlns:xlink="http://www.w3.org/1999/xlink">
    <!-- Generator: Sketch 48.2 (47327) - http://www.bohemiancoding.com/sketch -->
    <title>验证码</title>
    <desc>Created with Sketch.</desc>
    <defs>
        <rect id="path-1" x="0" y="528" width="750" height="120"></rect>
    </defs>
    <g id="手机号登录-copy" stroke="none" stroke-width="1" fill="none" fill-rule="evenodd" transform="translate(-40.000000, -570.000000)">
        <rect id="Rectangle" fill="#F6F5F8" x="0" y="0" width="750" height="1334"></rect>
        <g id="Rectangle-11-Copy">
            <use fill="#FFFFFF" fill-rule="evenodd" xlink:href="#path-1"></use>
            <rect stroke="#E4E4EB" stroke-width="1" x="-0.5" y="527.5" width="751" height="121"></rect>
        </g>
        <g id="Page-1-Copy" transform="translate(44.000000, 568.000000)" fill="#077ECD">
            <path d="M15.036,34.8708 C12.734,34.1668 3.978,30.8008 3,20.0108 L3,9.8848 C7.25,9.2208 11.348,7.7448 15.048,5.5508 C18.748,7.7408 22.84,9.2108 27.082,9.8768 L27.084,20.0588 C26.122,30.6708 17.598,34.0808 15.036,34.8708 Z M30.082,7.2048 C24.702,6.8128 19.518,5.0168 15.046,1.9988 C10.644,4.9788 5.542,6.7668 0.244,7.1908 L0,7.2088 L0,20.1428 C1.256,34.9728 14.95,37.9548 14.95,37.9548 L14.95,37.9988 C15.168,37.9548 28.838,34.8988 30.084,20.1888 L30.082,7.2048 Z" id="Fill-1"></path>
            <polygon id="Fill-4" points="13.288 21.5562 8.608 16.8742 6.486 18.9962 13.288 25.7982 23.598 15.4882 21.478 13.3662"></polygon>
        </g>
    </g>
</svg>